<svg xmlns="http://www.w3.org/2000/svg" width="512" height="512" viewBox="0 0 512 512" fill="none">
  <rect width="512" height="512" rx="128" fill="#4F46E5"/>
  <path d="M256 128C185.31 128 128 185.31 128 256C128 326.69 185.31 384 256 384C326.69 384 384 326.69 384 256C384 185.31 326.69 128 256 128ZM192 288C183.16 288 176 280.84 176 272C176 263.16 183.16 256 192 256C200.84 256 208 263.16 208 272C208 280.84 200.84 288 192 288ZM256 288C247.16 288 240 280.84 240 272C240 263.16 247.16 256 256 256C264.84 256 272 263.16 272 272C272 280.84 264.84 288 256 288ZM320 288C311.16 288 304 280.84 304 272C304 263.16 311.16 256 320 256C328.84 256 336 263.16 336 272C336 280.84 328.84 288 320 288Z" fill="white"/>
  <path d="M256 192C226.59 192 202.67 215.92 202.67 245.33C202.67 248.27 205.06 250.67 208 250.67H304C306.94 250.67 309.33 248.27 309.33 245.33C309.33 215.92 285.41 192 256 192ZM224 229.33C218.11 229.33 213.33 224.55 213.33 218.67C213.33 212.78 218.11 208 224 208C229.89 208 234.67 212.78 234.67 218.67C234.67 224.55 229.89 229.33 224 229.33ZM288 229.33C282.11 229.33 277.33 224.55 277.33 218.67C277.33 212.78 282.11 208 288 208C293.89 208 298.67 212.78 298.67 218.67C298.67 224.55 293.89 229.33 288 229.33Z" fill="white"/>
  <path d="M346.67 160H348C354.63 160 360 154.63 360 148C360 141.37 354.63 136 348 136C341.37 136 336 141.37 336 148C336 149.63 336.36 151.17 336.98 152.56C328.56 162.53 315.35 171.58 300.38 177.5C293.46 179.95 286.39 181.81 279.28 183.14C281.33 182.56 283.33 181.85 285.25 180.99C291.78 178.3 297.97 174.7 303.4 170.45C314.03 162.32 322.52 152.05 326.3 141.62C327.3 138.46 325.72 134.99 322.67 133.86C319.6 132.72 316.26 134.62 315.2 137.63C312.4 145.5 305.32 154.13 296.18 161.08C280.08 173.6 257.54 180.67 234.42 181.28C232.12 181.32 229.84 181.29 227.57 181.2C205.42 180.13 184.26 174.03 169.53 163.67C160.54 157.41 153.38 149.97 149.58 142.25C148.23 139.37 144.74 137.81 141.86 139.2C138.97 140.57 137.59 144.01 138.94 146.96C143.92 157.09 153.47 166.45 164.45 174.21C168.48 177.03 172.77 179.62 177.25 181.91C165.52 179.41 153.84 175.2 143.7 169.01C140.58 167.31 136.83 168.42 135.17 171.6C133.51 174.8 134.69 178.66 137.82 180.29C169.61 197.49 206.42 204.83 239.9 201.7C255.79 200.21 270.81 196.54 284.31 191.04C305.49 182.34 324.84 169.94 334.46 153.73C337.62 155.96 341.42 157.33 345.33 157.33C345.78 157.33 346.24 157.29 346.67 157.25V160ZM173.33 234.67C180.86 234.67 186.67 240.48 186.67 248C186.67 255.52 180.86 261.33 173.33 261.33C165.81 261.33 160 255.52 160 248C160 240.48 165.81 234.67 173.33 234.67Z" fill="white"/>
</svg>