<svg xmlns="http://www.w3.org/2000/svg" width="192" height="192" viewBox="0 0 192 192" fill="none">
  <rect width="192" height="192" rx="48" fill="#4F46E5"/>
  <path d="M96 48C69.49 48 48 69.49 48 96C48 122.51 69.49 144 96 144C122.51 144 144 122.51 144 96C144 69.49 122.51 48 96 48ZM72 108C68.69 108 66 105.31 66 102C66 98.69 68.69 96 72 96C75.31 96 78 98.69 78 102C78 105.31 75.31 108 72 108ZM96 108C92.69 108 90 105.31 90 102C90 98.69 92.69 96 96 96C99.31 96 102 98.69 102 102C102 105.31 99.31 108 96 108ZM120 108C116.69 108 114 105.31 114 102C114 98.69 116.69 96 120 96C123.31 96 126 98.69 126 102C126 105.31 123.31 108 120 108Z" fill="white"/>
  <path d="M96 72C84.97 72 76 80.97 76 92C76 93.1 76.9 94 78 94H114C115.1 94 116 93.1 116 92C116 80.97 107.03 72 96 72ZM84 86C81.79 86 80 84.21 80 82C80 79.79 81.79 78 84 78C86.21 78 88 79.79 88 82C88 84.21 86.21 86 84 86ZM108 86C105.79 86 104 84.21 104 82C104 79.79 105.79 78 108 78C110.21 78 112 79.79 112 82C112 84.21 110.21 86 108 86Z" fill="white"/>
  <path d="M130 60H130.5C132.99 60 135 57.99 135 55.5C135 53.01 132.99 51 130.5 51C128.01 51 126 53.01 126 55.5C126 56.11 126.14 56.69 126.37 57.21C123.21 60.95 118.26 64.35 112.64 66.56C110.05 67.48 107.4 68.18 104.73 68.68C105.5 68.46 106.25 68.19 106.97 67.87C109.42 66.86 111.74 65.51 113.78 63.92C117.76 60.87 120.95 57.02 122.36 53.11C122.74 51.92 122.14 50.62 121 50.2C119.85 49.77 118.6 50.48 118.2 51.61C117.15 54.56 114.5 57.8 111.07 60.41C105.03 65.1 96.58 67.75 87.91 67.98C87.05 67.99 86.19 67.98 85.34 67.95C77.03 67.55 69.1 65.26 63.57 61.38C60.2 59.03 57.52 56.24 56.09 53.34C55.59 52.26 54.28 51.68 53.2 52.2C52.11 52.71 51.6 54 52.1 55.11C53.97 58.91 57.3 62.42 61.42 65.33C62.93 66.39 64.54 67.36 66.22 68.22C61.82 67.28 57.44 65.7 53.39 63.38C52.22 62.74 50.81 63.16 50.19 64.35C49.57 65.55 50.01 67 51.18 67.61C63.35 74.06 77.41 76.81 89.96 75.64C95.92 75.08 101.55 73.7 106.62 71.64C114.56 68.38 121.81 63.35 125.42 57.65C126.61 58.48 128.03 59 129.5 59C129.67 59 129.83 58.98 130 58.97V60ZM65 88C67.76 88 70 90.24 70 93C70 95.76 67.76 98 65 98C62.24 98 60 95.76 60 93C60 90.24 62.24 88 65 88Z" fill="white"/>
</svg>